<svg xmlns="http://www.w3.org/2000/svg" width="1252.355" height="827.527" viewBox="0 0 1252.355 827.527">
  <g id="razolefiber" transform="translate(-698.185 -2574.418)">
    <g id="fiber" transform="translate(698.185 3401.945) rotate(-90)">
      <path id="Path_803" data-name="Path 803" d="M79.494,470.336c0-68.42,4.243-139.449,11.314-210.227,8.248-82.661,20.735-167.545,34.6-247.646L46.9,0C32.949,80.6,20.528,166.241,11.924,252.343,4.476,327,0,400.824,0,470.336v79.5H79.494Z" transform="translate(431.462 291.888)" fill="#bbc406" fill-rule="evenodd"/>
      <path id="Path_804" data-name="Path 804" d="M42.942.861C21.274-2.582,2.113,4.613.161,16.938s14.03,25.1,35.71,28.539,40.838-3.759,42.786-16.083S64.621,4.308,42.942.861Z" transform="translate(478.211 274.95)" fill="#dcd500" fill-rule="evenodd"/>
      <path id="Path_805" data-name="Path 805" d="M19.667,294.054C38.47,186.243,60.53,83.648,79.367,4.087L79.191,3.7,59.923,0C40.553,81.843,19.321,178.946.1,290.653l-.041.142-.016.147c-.485,3.074,3.516,6.272,8.934,7.132S19.179,297.128,19.667,294.054Z" transform="translate(508.005 4.244)" fill="#0bbbef" fill-rule="evenodd"/>
      <path id="Path_806" data-name="Path 806" d="M10.735.216C5.32-.649.529,1.159.041,4.24s3.513,6.268,8.931,7.127,10.206-.939,10.693-4.013C20.15,4.262,16.155,1.082,10.735.216Z" transform="translate(567.887)" fill="#a1daf8" fill-rule="evenodd"/>
      <path id="Path_807" data-name="Path 807" d="M45.911,470.336c0-68.42-4.243-139.449-11.313-210.227C26.353,177.448,13.864,92.564,0,12.463L78.511,0c13.945,80.6,26.367,166.241,34.97,252.343,7.448,74.659,11.924,148.481,11.924,217.993v79.5H45.911Z" transform="translate(270.658 291.888)" fill="#bbc406" fill-rule="evenodd"/>
      <path id="Path_808" data-name="Path 808" d="M35.879.86C57.566-2.582,76.715,4.618,78.673,16.927S64.639,42.019,42.95,45.453,2.112,41.7.162,29.389,14.19,4.3,35.879.86Z" transform="translate(270.497 274.951)" fill="#dcd500" fill-rule="evenodd"/>
      <path id="Path_809" data-name="Path 809" d="M59.7,294.054C40.9,186.243,18.836,83.648,0,4.087L.175,3.7,19.447,0c19.367,81.843,40.6,178.946,59.825,290.653l.041.142.016.147c.485,3.074-3.516,6.272-8.934,7.132S60.188,297.128,59.7,294.054Z" transform="translate(240.154 4.244)" fill="#0bbbef" fill-rule="evenodd"/>
      <path id="Path_810" data-name="Path 810" d="M8.97.219c5.425-.871,10.206.937,10.7,4.017s-3.517,6.268-8.936,7.127S.526,10.425.04,7.35,3.549,1.078,8.97.219Z" transform="translate(239.936 0.001)" fill="#a1daf8" fill-rule="evenodd"/>
      <path id="Path_811" data-name="Path 811" d="M311.145,0H0V252.586H311.145Z" transform="translate(258.193 999.769)" fill="#96ae24"/>
      <path id="Path_812" data-name="Path 812" d="M82.475,0H0V252.586H82.475Z" transform="translate(314.996 999.769)" fill="#bbc406"/>
      <path id="Path_813" data-name="Path 813" d="M155.572,0c85.919,0,155.573,39.563,155.573,88.4,0,48.812-69.654,88.39-155.573,88.39S0,137.208,0,88.4C0,39.563,69.653,0,155.572,0Z" transform="translate(258.193 911.375)" fill="#dcd500" fill-rule="evenodd"/>
      <path id="Path_814" data-name="Path 814" d="M130.379,0c72.009,0,130.377,29.767,130.377,66.506,0,36.724-58.369,66.5-130.377,66.5S0,103.23,0,66.506C0,29.767,58.367,0,130.379,0Z" transform="translate(283.386 933.26)" fill="#96ae24" fill-rule="evenodd"/>
      <path id="Path_815" data-name="Path 815" d="M110.417,495.668c0-83.719-11.755-165.395-31.2-243.214C59.618,173.96,31.112,96.751,0,27.645L74.53,0c32.938,73.145,60.9,149.863,81.71,233.2,20.99,84,33.67,172.134,33.67,262.467v62.008c-39.277-7.778-69.343-24.985-79.493-46.183Z" transform="translate(176.702 504.092)" fill="#f7a600" fill-rule="evenodd"/>
      <path id="Path_816" data-name="Path 816" d="M45.911,470.343c0-68.429-4.243-139.462-11.313-210.234C26.353,177.445,13.864,92.561,0,12.463L78.511,0c13.945,80.6,26.367,166.238,34.97,252.35,7.448,74.649,11.924,148.474,11.924,217.993V505.1c-31.438-2.175-59.319-10.076-79.494-21.576Z" transform="translate(270.658 560.55)" fill="#008bd2" fill-rule="evenodd"/>
      <path id="Path_817" data-name="Path 817" d="M35.879.859C57.566-2.582,76.715,4.624,78.673,16.926S64.639,42.012,42.95,45.456,2.112,41.691.162,29.389,14.19,4.3,35.879.859Z" transform="translate(270.497 543.614)" fill="#a1daf8" fill-rule="evenodd"/>
      <path id="Path_818" data-name="Path 818" d="M30.236,4.117C50.823-3.52,71.021-.224,75.356,11.458s-8.832,27.359-29.409,35S5.154,50.8.825,39.1C-3.509,27.424,9.659,11.75,30.236,4.117Z" transform="translate(175.879 492.641)" fill="#ffd500" fill-rule="evenodd"/>
      <path id="Path_819" data-name="Path 819" d="M59.7,294.054C40.9,186.247,18.836,83.65,0,4.091l.175-.385L19.447,0c19.367,81.85,40.6,178.947,59.825,290.657l.041.142.016.148c.485,3.072-3.516,6.271-8.934,7.124S60.188,297.135,59.7,294.054Z" transform="translate(240.154 272.905)" fill="#0bbbef" fill-rule="evenodd"/>
      <path id="Path_820" data-name="Path 820" d="M187.442,317.9C126.65,191.42,55.459,85.585,0,11.958L15.836,0C76.849,80.99,156.681,200.546,221.344,343.675l.068.123.175.4c1.084,2.931-2.205,6.844-7.347,8.764-5.144,1.9-10.2,1.08-11.28-1.838C197.376,339.215,188.04,318.725,187.442,317.9Z" transform="translate(0.818 168.296)" fill="#0bbbef" fill-rule="evenodd"/>
      <path id="Path_821" data-name="Path 821" d="M8.97.219c5.425-.871,10.206.933,10.7,4.013s-3.517,6.272-8.936,7.126S.526,10.419.04,7.345,3.549,1.073,8.97.219Z" transform="translate(239.936 268.663)" fill="#a1daf8" fill-rule="evenodd"/>
      <path id="Path_822" data-name="Path 822" d="M5.464,2.768C9.952-.419,15.038-.922,16.836,1.614,18.645,4.17,16.479,8.791,12,11.969S2.43,15.659.64,13.122C-1.171,10.572.994,5.938,5.464,2.768Z" transform="translate(0 166.913)" fill="#a1daf8" fill-rule="evenodd"/>
      <path id="Path_823" data-name="Path 823" d="M79.494,495.668c0-83.719,11.754-165.395,31.2-243.214C130.3,173.96,158.8,96.751,189.911,27.645L115.38,0c-32.937,73.145-60.9,149.863-81.71,233.2C12.683,317.2,0,405.335,0,495.668v62.008c39.277-7.778,69.345-24.985,79.494-46.183Z" transform="translate(460.911 504.092)" fill="#008bd2" fill-rule="evenodd"/>
      <path id="Path_824" data-name="Path 824" d="M79.494,470.343c0-68.429,4.243-139.462,11.314-210.234,8.248-82.664,20.735-167.548,34.6-247.646L46.9,0C32.949,80.6,20.528,166.238,11.924,252.35,4.476,327,0,400.824,0,470.343V505.1c31.438-2.175,59.319-10.076,79.494-21.576Z" transform="translate(431.462 560.55)" fill="#f7a600" fill-rule="evenodd"/>
      <path id="Path_825" data-name="Path 825" d="M42.942.859C21.274-2.579,2.113,4.611.161,16.935s14.03,25.1,35.71,28.542,40.838-3.765,42.786-16.089S64.621,4.306,42.942.859Z" transform="translate(478.211 543.611)" fill="#ffd500" fill-rule="evenodd"/>
      <path id="Path_826" data-name="Path 826" d="M45.943,4.118C25.362-3.519,5.165-.229.827,11.465s8.833,27.362,29.4,35S71.019,50.8,75.348,39.11,66.521,11.749,45.943,4.118Z" transform="translate(575.471 492.639)" fill="#a1daf8" fill-rule="evenodd"/>
      <path id="Path_827" data-name="Path 827" d="M19.667,294.054C38.47,186.247,60.53,83.65,79.367,4.091l-.176-.385L59.923,0C40.553,81.85,19.321,178.947.1,290.657l-.041.142-.016.148c-.485,3.072,3.516,6.271,8.934,7.124S19.179,297.135,19.667,294.054Z" transform="translate(508.005 272.905)" fill="#0bbbef" fill-rule="evenodd"/>
      <path id="Path_828" data-name="Path 828" d="M34.352,317.9C95.144,191.42,166.334,85.585,221.794,11.958L205.957,0C144.944,80.99,65.113,200.546.449,343.675l-.066.123-.176.4c-1.083,2.931,2.207,6.844,7.347,8.764,5.144,1.9,10.2,1.08,11.279-1.838C24.417,339.215,33.754,318.725,34.352,317.9Z" transform="translate(604.914 168.296)" fill="#0bbbef" fill-rule="evenodd"/>
      <path id="Path_829" data-name="Path 829" d="M10.735.214C5.32-.645.529,1.159.041,4.239s3.513,6.272,8.931,7.125c5.414.871,10.206-.939,10.693-4.013S16.155,1.079,10.735.214Z" transform="translate(567.887 268.662)" fill="#a1daf8" fill-rule="evenodd"/>
      <path id="Path_830" data-name="Path 830" d="M12.011,2.767C7.528-.421,2.448-.923.637,1.619S1,8.8,5.473,11.968s9.56,3.69,11.364,1.146S16.481,5.937,12.011,2.767Z" transform="translate(810.051 166.913)" fill="#a1daf8" fill-rule="evenodd"/>
      <path id="Path_831" data-name="Path 831" d="M0,462.822V0H79.5V482.235A247,247,0,0,1,39.752,485.4,247.062,247.062,0,0,1,0,482.235Z" transform="translate(374.013 580.86)" fill="#e63323" fill-rule="evenodd"/>
      <path id="Path_832" data-name="Path 832" d="M39.752,0C61.709,0,79.5,10.114,79.5,22.58s-17.8,22.577-39.752,22.577S0,35.046,0,22.58,17.8,0,39.752,0Z" transform="translate(374.013 558.274)" fill="#f08262" fill-rule="evenodd"/>
      <path id="Path_833" data-name="Path 833" d="M19.87,287.143c0,3.116-4.451,5.641-9.935,5.641S0,290.26,0,287.143V0H19.87V287.143Z" transform="translate(403.83 291.831)" fill="#0bbbef" fill-rule="evenodd"/>
      <path id="Path_834" data-name="Path 834" d="M9.935,0c5.484,0,9.935,2.526,9.935,5.644s-4.451,5.64-9.935,5.64S0,8.758,0,5.644,4.451,0,9.935,0Z" transform="translate(403.83 286.186)" fill="#a1daf8" fill-rule="evenodd"/>
    </g>
  </g>
</svg>
