<svg xmlns="http://www.w3.org/2000/svg" xmlns:xlink="http://www.w3.org/1999/xlink" width="1007.931" height="372.395" viewBox="0 0 1007.931 372.395">
  <defs>
    <filter id="Path_802" x="0" y="94.315" width="274.897" height="275.897" filterUnits="userSpaceOnUse">
      <feOffset dy="10" input="SourceAlpha"/>
      <feGaussianBlur stdDeviation="3" result="blur"/>
      <feFlood flood-opacity="0.161"/>
      <feComposite operator="in" in2="blur"/>
      <feComposite in="SourceGraphic"/>
    </filter>
    <linearGradient id="linear-gradient" x1="0.5" x2="0.5" y2="1" gradientUnits="objectBoundingBox">
      <stop offset="0" stop-color="#fbfbfb" stop-opacity="0.141"/>
      <stop offset="1" stop-color="#066f9e"/>
    </linearGradient>
    <filter id="Rectangle_136" x="599.715" y="172.364" width="98.641" height="51.178" filterUnits="userSpaceOnUse">
      <feOffset dx="5" dy="6" input="SourceAlpha"/>
      <feGaussianBlur result="blur-2"/>
      <feFlood flood-opacity="0.161"/>
      <feComposite operator="in" in2="blur-2"/>
      <feComposite in="SourceGraphic"/>
    </filter>
    <linearGradient id="linear-gradient-2" x1="0.5" x2="0.5" y2="1" gradientUnits="objectBoundingBox">
      <stop offset="0" stop-color="#d69600"/>
      <stop offset="1" stop-color="#dbb931"/>
    </linearGradient>
  </defs>
  <g id="rzlfiber-about" transform="translate(-204.724 -1673.5)">
    <g id="towerwithwire" transform="translate(216.075 1717.225)">
      <path id="Path_758" data-name="Path 758" d="M118.407,1645.807s63.9,66.255,139.374,66.057c34.064-.089,75.407-6.953,123.655-26.691,155.139-63.466,184.891-45.663,184.891-45.663l14.594-3.8" transform="translate(51.725 -1494.741)" fill="none" stroke="#ff552e" stroke-width="10"/>
      <g id="earth-globe-planet-svgrepo-com" transform="translate(-63.182 7.031)">
        <g transform="matrix(1, 0, 0, 1, 51.83, -50.76)" filter="url(#Path_802)">
          <path id="Path_802-2" data-name="Path 802" d="M128.448,0A128.448,128.448,0,1,1,0,128.448,128.448,128.448,0,0,1,128.448,0Z" transform="translate(9 94.31)" fill="#4177b2"/>
        </g>
        <path id="Path_748" data-name="Path 748" d="M217.157,252.468A128.238,128.238,0,0,1,173.689,44.934,128.4,128.4,0,1,0,281.9,261.23,127.749,127.749,0,0,1,217.157,252.468Z" transform="translate(0 -0.357)" fill="url(#linear-gradient)"/>
        <g id="Group_511" data-name="Group 511" transform="translate(96.913 51.593)">
          <path id="Path_750" data-name="Path 750" d="M336.182,140.9a6.423,6.423,0,0,1-4.541-10.964l6.423-6.423a6.422,6.422,0,0,1,9.082,9.082l-6.423,6.423A6.4,6.4,0,0,1,336.182,140.9Z" transform="translate(-166.749 -71.865)" fill="#b4ff87"/>
          <path id="Path_751" data-name="Path 751" d="M224.515,85.786l14.462,1.39,1.866-5.264-28.069-9.956a7.365,7.365,0,0,0-4.528-.127l-16.768,4.9a3.883,3.883,0,0,1-4.732-5.069l1.307-3.551a4.582,4.582,0,0,0-2.768-5.9l-.694-.246a17.719,17.719,0,0,0-13.541.7L167.413,64.4a4.428,4.428,0,0,1-5.9-2.094l-3.865-7.894A128.468,128.468,0,0,0,109.85,85.389l-.268,24.831a11.17,11.17,0,0,0,7.435,10.741l1.436.509v10.57a25.685,25.685,0,0,0,12.074,21.783L148.9,165.3l-5.16,6.614L140,182.447a11.17,11.17,0,0,0,1.225,9.916l9.273,13.956a11.172,11.172,0,0,1,1.225,9.916l-4.977,14.034a44.3,44.3,0,0,0-2.469,17.447l.963,16.134a5.4,5.4,0,0,0,3.48,4.732l.033.012a5.4,5.4,0,0,0,7.007-3.247l5.558-15.672,10.682-2.7a13.291,13.291,0,0,0,7.642-5.273l6.451-9.231a5.585,5.585,0,0,1,6.271-1.828l2.624.931a5.585,5.585,0,0,0,6.521-2.176l6.16-9.285a13.288,13.288,0,0,0,.924-13.062l-1.19-2.5a13.292,13.292,0,0,0-7.556-6.811l-1.882-.668a8.857,8.857,0,0,1-5.037-4.539l-8.064-16.928c-2.188-3.995-14.449-12.008-14.449-12.008l-28.232-17.643a6.226,6.226,0,0,1-2.573-7.348h0a13.32,13.32,0,0,1,16.977-8.113l2.592.92-1.965,4.11a6.425,6.425,0,0,0,11.592,5.544l6.072-12.7L212.2,108.683a4.429,4.429,0,0,1,3.386-.175l6.3,2.234a4.428,4.428,0,0,0,4.464-.9l2-1.821a4.429,4.429,0,0,0,.556-5.938L221.154,91.79A3.758,3.758,0,0,1,224.515,85.786Z" transform="translate(-109.58 -54.411)" fill="#b4ff87"/>
          <path id="Path_752" data-name="Path 752" d="M367.179,259.522a127.982,127.982,0,0,0,9.451-41.537l-8.083-2.686a13.291,13.291,0,0,0-7.693-.361l-3.7.934A12.845,12.845,0,0,1,344.1,211.59l-6.577-7.977a26.582,26.582,0,0,0-11.621-8.14l-9.631-3.416a13.288,13.288,0,0,0-14.421,3.748l-6.557,7.458a25.584,25.584,0,0,0-2.1,31.053l.458.691a25.59,25.59,0,0,0,12.756,9.953l.312.111a13.289,13.289,0,0,1,8.082,16.967l-4.971,14.019a35.421,35.421,0,0,0-1.966,14.114l1.128,17.575c.261,4.08,4.036,8.679,7.8,11.3A127.751,127.751,0,0,0,367.179,259.522Z" transform="translate(-156.145 -89.952)" fill="#b4ff87"/>
          <path id="Path_753" data-name="Path 753" d="M383.9,183.354a128.8,128.8,0,0,0-17.368-54.269l-10.13,4.15a5.583,5.583,0,0,0-2.862,3.175L350.4,145.28a12.146,12.146,0,0,1-11.678,8.085l-9.246-.773a8.86,8.86,0,0,0-9.088,5.868l-2.159,6.089a8.859,8.859,0,0,0,5.388,11.31l7.164,2.541a8.858,8.858,0,0,0,9.32-2.181l8.281-8.537Z" transform="translate(-163.622 -73.8)" fill="#b4ff87"/>
        </g>
        <g id="Group_512" data-name="Group 512" transform="translate(96.914 51.593)">
          <path id="Path_754" data-name="Path 754" d="M151.542,151.806l-9.358-5.849a6.227,6.227,0,0,1-2.575-7.347,13.291,13.291,0,0,1,11.2-8.763,127.941,127.941,0,0,1,9.5-42.746,126.186,126.186,0,0,1,14.516-25.695,17.634,17.634,0,0,0-3.773,1.257L167.414,64.4a4.428,4.428,0,0,1-5.9-2.094l-3.865-7.893-.032.012a128.469,128.469,0,0,0-47.762,30.965l-.268,24.831a11.171,11.171,0,0,0,7.435,10.741l1.436.509v10.57a25.687,25.687,0,0,0,12.074,21.783L148.9,165.3l-5.16,6.614L140,182.445a11.169,11.169,0,0,0,1.225,9.916l9.273,13.955a11.173,11.173,0,0,1,1.225,9.916l-4.977,14.034a44.3,44.3,0,0,0-2.469,17.446l.963,16.135a5.4,5.4,0,0,0,3.48,4.732l.033.012a5.4,5.4,0,0,0,7.007-3.247l5.558-15.672,10.682-2.7a13.291,13.291,0,0,0,7.642-5.273l6.451-9.231a5.552,5.552,0,0,1,5.861-1.9A128.684,128.684,0,0,1,151.542,151.806Z" transform="translate(-109.581 -54.41)" fill="#9bf57d"/>
          <path id="Path_755" data-name="Path 755" d="M347.958,337.035a128.579,128.579,0,0,1-32.678-.15l.555,8.661c.26,4.057,4,8.623,7.74,11.25.411-.258.836-.493,1.244-.755,1.257-.808,2.48-1.672,3.711-2.523,1.467-1.019,2.938-2.032,4.364-3.113.925-.7,1.817-1.441,2.724-2.165,1.684-1.35,3.363-2.706,4.983-4.144.543-.48,1.062-.99,1.6-1.481,1.921-1.764,3.819-3.56,5.637-5.448C347.878,337.123,347.917,337.077,347.958,337.035Z" transform="translate(-162.99 -127.754)" fill="#9bf57d"/>
        </g>
      </g>
    </g>
    <g id="Group_527" data-name="Group 527" transform="translate(804.939 1832.19)">
      <g transform="matrix(1, 0, 0, 1, -600.21, -158.69)" filter="url(#Rectangle_136)">
        <rect id="Rectangle_136-2" data-name="Rectangle 136" width="92.641" height="44.178" transform="translate(600.21 172.86)" fill="#fff" stroke="#707070" stroke-width="1"/>
      </g>
      <line id="Line_6" data-name="Line 6" x2="12.473" y2="14.741" transform="translate(5.103)" fill="none" stroke="#707070" stroke-width="2"/>
      <line id="Line_7" data-name="Line 7" x1="12.473" y2="14.741" transform="translate(72.231 0.567)" fill="none" stroke="#707070" stroke-width="2"/>
    </g>
    <g id="Group_528" data-name="Group 528" transform="translate(841.791 1860.889)">
      <ellipse id="Ellipse_65" data-name="Ellipse 65" cx="2.002" cy="1.669" rx="2.002" ry="1.669" transform="translate(14.683 1.006)" fill="#3f3d56"/>
      <ellipse id="Ellipse_66" data-name="Ellipse 66" cx="2.002" cy="1.669" rx="2.002" ry="1.669" transform="translate(7.342 1.674)" fill="#3f3d56"/>
      <ellipse id="Ellipse_67" data-name="Ellipse 67" cx="2.002" cy="1.669" rx="2.002" ry="1.669" transform="translate(0 5.011)" fill="#3f3d56"/>
      <path id="Path_801" data-name="Path 801" d="M756.533,486.669a28.154,28.154,0,0,0-3.018-.656c-8.755-1.454-19.351-32.669-26.145-26.678a29.291,29.291,0,0,0-8.6,13.448c-1.919,6.18-2.236,12.7-2.437,19.122-.222,7.1-.415,14.206-.622,21.309-.2,6.773-.22,13.577-.672,20.338-.379,5.674-1.287,11.563-4.324,16.484a22.628,22.628,0,0,1-12.289,9.34,48.84,48.84,0,0,1-15.93,2.086,122.955,122.955,0,0,1-18.573-1.471c-11.671-1.87-23.2-6.639-30.328-16.478a27.3,27.3,0,0,1-5.288-15.37c-.15-6.457,1.913-12.712,4.172-18.676,2.2-5.8,4.578-11.522,5.97-17.591a73.8,73.8,0,0,0,1.835-17.315,76.118,76.118,0,0,0-8.162-33.522,65.865,65.865,0,0,0-10.021-14.734c-4.117-4.48-9.215-8.178-15.277-9.39a18.446,18.446,0,0,0-8.922.359,1,1,0,0,1-.532-1.931c6.006-1.8,12.53-.431,17.855,2.69,5.235,3.069,9.373,7.673,12.884,12.554A77.535,77.535,0,0,1,639.079,497.3c-3.563,11.673-11.313,23.823-7.984,36.456,2.914,11.057,13.009,18.571,23.438,21.966A80.8,80.8,0,0,0,674.11,559.1a86.124,86.124,0,0,0,16.834-.1c5.121-.66,10.388-2.225,14.359-5.663,4.352-3.768,6.341-9.182,7.207-14.739.98-6.287.836-12.77,1.02-19.114l.631-21.654c.356-12.23.049-25.784,8.006-35.917,6.446-8,17.313,21.571,27.587,21.734a29.956,29.956,0,0,1,7.312,1.08,1,1,0,0,1-.532,1.931Z" transform="translate(-579.857 -414.543)" fill="#ff552e"/>
    </g>
    <g id="Group_525" data-name="Group 525" transform="translate(548.456 1673.5)">
      <g id="Group_100" data-name="Group 100" transform="translate(267.034 288.846)">
        <path id="Path_1465" data-name="Path 1465" d="M671.326,628.1a7.669,7.669,0,1,1-7.669,7.669h0A7.669,7.669,0,0,1,671.326,628.1Zm0,12.388a4.719,4.719,0,1,0-4.719-4.719h0A4.719,4.719,0,0,0,671.326,640.488Z" transform="translate(-663.657 -622.201)" fill="url(#linear-gradient-2)"/>
        <path id="Path_1467" data-name="Path 1467" d="M660.45,619.261h-29.5v29.193A3.842,3.842,0,0,0,634.8,652.3h21.811a3.842,3.842,0,0,0,3.842-3.842V619.261Z" transform="translate(-623.285 -619.261)" fill="url(#linear-gradient-2)"/>
      </g>
      <g id="Group_526" data-name="Group 526" transform="translate(219.671 40.592)">
        <path id="Path_944" data-name="Path 944" d="M113.868,669.093H557.2a.671.671,0,0,0,0-1.335H113.868a.671.671,0,0,0,0,1.335Z" transform="translate(-113.27 -386.515)" fill="#cacaca"/>
        <path id="Path_792" data-name="Path 792" d="M137.594,494.381l2.742,13.557L89.349,524.967,85.3,504.958Z" transform="translate(247.259 -224.411)" fill="#ffb6b6"/>
        <path id="Path_793" data-name="Path 793" d="M170.79,645.258l5.4,26.7h0a17.36,17.36,0,0,0,20.457,13.573l.553-.112-8.842-43.714Z" transform="translate(208.937 -377.851)" fill="#2f2e41"/>
        <ellipse id="Ellipse_276" data-name="Ellipse 276" cx="34.62" cy="34.62" rx="34.62" ry="34.62" transform="translate(292.455 13.985)" fill="#feb8b8"/>
        <path id="Path_1461" data-name="Path 1461" d="M235.337,265.114a39.984,39.984,0,0,1,22.747-17.388l4.25,3.1V246.8a36.8,36.8,0,0,1,6.875-.4l3.667,3.318v-3.042a39.6,39.6,0,0,1,27.319,16.25c7.963,11.48,9.307,27.451,1.475,39.023-2.15-6.608-4.759-12.807-6.91-19.414a19.556,19.556,0,0,1-5.094.025l-2.616-6.1-.731,5.845c-8.108-.706-20.134-2.257-27.82-3.678l.748-4.484-4.472,3.726c-2.355-.542-3.753-1.034-3.637-1.41-5.717,9.216-12.713,15.1-18.428,24.318C230.538,287.777,228.039,276.972,235.337,265.114Z" transform="translate(59.402 -246.376)" fill="#2f2e41"/>
        <ellipse id="Ellipse_260" data-name="Ellipse 260" cx="89.142" cy="24.935" rx="89.142" ry="24.935" transform="translate(226.669 225.284)" fill="#2f2e41"/>
        <path id="Path_794" data-name="Path 794" d="M183.42,428.305c1.19-7.162,2.418-14.462,5.747-20.914,2.188-4.226,5.66-8.253,10.342-9.089a10.005,10.005,0,0,0,2.693-.623c1.372-.661,19.8-11.184,22.735-13.016,2.516-1.573,6.487-4.487,8.489-4.487,2.014-.044,9.738,1.753,39.886-.6A108.891,108.891,0,0,1,288,386.8c.1-.064,31.29,16.687,32.462,16.643a6.817,6.817,0,0,1,5.555,3.117,20.163,20.163,0,0,1,2.493,6.146c-6.813,15.173-13.047,30.365-19.861,45.537a3.886,3.886,0,0,0-.493,1.869,4.561,4.561,0,0,0,.848,1.869c3.341,5.367,3.235,12.119,2.87,18.427s-.817,12.972,2,18.627c.767,1.552,1.764,2.973,2.493,4.526,1.708,3.516,2.325,14.762,1.328,18.539l-124.988,3.581C195.4,518.289,183.42,428.305,183.42,428.305Z" transform="translate(69.196 -290.673)" fill="#524e8d"/>
        <path id="Path_1421" data-name="Path 1421" d="M244.294,494.216a22.068,22.068,0,0,1,.075,5.442l-1.791,25.727c-.168,2.425-.334,4.844-.561,7.262-.43,4.694-1.072,9.351-1.869,14a2.494,2.494,0,0,1-2.556,2.425c-7.886,1.669-16.033,1.6-24.081,1.147-12.281-.685-43.7-1.982-45.619-4.476s-.8-6.527,1.7-8.543,43.964-6.932,43.964-6.932a40.854,40.854,0,0,0-2.787-9.282c-2.082-5.406-4.027-10.99-4.065-16.781s2.144-11.88,6.889-15.2c3.9-2.724,8.927-3.229,13.682-3.117,3.46.1,9.438-.729,12.6.623C242.377,487.616,243.826,491.768,244.294,494.216Z" transform="translate(164.218 -325.978)" fill="#fbbebe"/>
        <path id="Path_1423" data-name="Path 1423" d="M277.174,585.323c-2.076-.792-4.364-.505-6.589-.206-7.163.978-14.431,1.982-21.07,4.844a20.711,20.711,0,0,0-8.191,5.74,28.452,28.452,0,0,0-4,8.1l-2.394,6.558a31.568,31.568,0,0,0-2.088,7.686c-.748,7.848,4.619,15.247,11.37,19.325s14.7,5.529,22.442,7.05,15.516,3.2,23.227,4.987a93.5,93.5,0,0,0,10.928,2.15c8.253.935,16.881-.442,24.723,2.288,3.117,1.091,6.178,2.712,9.411,3.466a58.558,58.558,0,0,0,6.508.991L356.3,660a80.979,80.979,0,0,0,9.1.7c6.483,0,12.86-1.535,19.155-3.07a4.843,4.843,0,0,0,1.869-.754c1-.786,1.215-2.176,1.359-3.435q.954-8.36,1.669-16.737c.15-1.814.262-3.778-.73-5.3-1.247-1.869-3.678-2.456-5.9-2.818a153.892,153.892,0,0,0-28.476-1.976c-3.621-3.622-9.594-3.64-14.338-5.61a42.648,42.648,0,0,1-5.056-2.749,66.076,66.076,0,0,0-27.758-8.771,25.844,25.844,0,0,1-5.679-.81c-3.671-1.141-7.019-4.246-10.79-3.485-.467-1.29-.792-3.017-1.869-3.9-.534-.455-1.2-.76-1.689-1.247-1.041-1.053-1.135-2.712-.978-4.183a12.238,12.238,0,0,0,.125-4.414,6.1,6.1,0,0,0-.692-1.54A8.415,8.415,0,0,0,277.174,585.323Z" transform="translate(-24.78 -358.929)" fill="#2f2e41"/>
        <path id="Path_1430" data-name="Path 1430" d="M190.438,427.921a6.452,6.452,0,0,1,1.384,2.213,104.64,104.64,0,0,1,8.789,35.918,3.591,3.591,0,0,0,.405,1.739,7.614,7.614,0,0,0,.916.991,3.441,3.441,0,0,1-.412,4.849q-.085.072-.174.138c-1.029-1.936-3.491-2.568-5.679-2.736-10.479-.829-20.714,4.046-31.224,3.678.742-2.562,1.808-5.024,2.413-7.617,2.674-11.514-4-24.049.093-35.14.817-2.219,2.182-4.4,4.332-5.373a11.538,11.538,0,0,1,2.774-.734c2.656-.48,7.942-2.531,10.51-1.708.948.306,1.322,1.2,2.107,1.735C187.866,426.637,189.449,426.917,190.438,427.921Z" transform="translate(207.63 -305.431)" fill="#585494"/>
        <path id="Path_1421-2" data-name="Path 1421" d="M296.24,486.515c3.16-1.353,9.138-.524,12.6-.623,4.755-.112,9.78.393,13.682,3.117,4.744,3.318,6.926,9.407,6.889,15.2s-1.982,11.375-4.065,16.781a40.853,40.853,0,0,0-2.787,9.282s41.461,4.916,43.964,6.932,3.621,6.05,1.7,8.543-61.814,5-69.7,3.328a2.494,2.494,0,0,1-2.556-2.425c-.8-4.65-1.439-9.307-1.869-14-.228-2.419-.393-4.838-.561-7.262l-1.791-25.727a22.067,22.067,0,0,1,.075-5.442C292.29,491.768,293.739,487.616,296.24,486.515Z" transform="translate(-43.699 -325.978)" fill="#fbbebe"/>
        <path id="Path_1430-2" data-name="Path 1430" d="M369.016,425.874c.786-.539,1.159-1.43,2.107-1.735,2.568-.823,7.854,1.228,10.51,1.708a11.539,11.539,0,0,1,2.774.734c2.15.972,3.515,3.154,4.332,5.373,4.089,11.09-2.581,23.626.093,35.14.6,2.593,1.671,5.055,2.413,7.617-10.51.368-20.746-4.507-31.224-3.678-2.188.168-4.651.8-5.679,2.736q-.089-.066-.174-.138a3.441,3.441,0,0,1-.412-4.849,7.606,7.606,0,0,0,.916-.991,3.591,3.591,0,0,0,.405-1.739,104.641,104.641,0,0,1,8.789-35.918,6.452,6.452,0,0,1,1.384-2.213C366.24,426.917,367.823,426.637,369.016,425.874Z" transform="translate(-106.684 -305.431)" fill="#585494"/>
        <path id="Path_795" data-name="Path 795" d="M215.975,519.875l1.822,13.711,53.753-.5-2.69-20.237Z" transform="translate(28.83 -230.552)" fill="#ffb6b6"/>
        <path id="Path_796" data-name="Path 796" d="M400.894,676.1l5.876,44.211.559-.074a17.36,17.36,0,0,0,14.921-19.495h0l-3.589-27Z" transform="translate(-169.845 -388.502)" fill="#2f2e41"/>
        <path id="Path_1427" data-name="Path 1427" d="M260.83,589.112c0,.623.978,0,1.068-.667.685-5.043,4.688-9.2,9.351-11.221s9.974-2.126,15.023-1.646c7.636.723,16.208,3.647,19,10.784.661,1.669,6.851,16.526,6.246,19.867-1.627,8.914-7.724,16.538-15.111,21.818s-16.018,8.434-24.628,11.28A427.13,427.13,0,0,1,201.962,656a67.142,67.142,0,0,0-11.4,2.35c-3.291,1.1-6.371,2.755-9.588,4.052-7.481,3-15.528,4.077-23.5,5.131-1.359.175-2.917.3-3.921-.623-1.3-1.2-.868-3.3-.5-5.024a27.023,27.023,0,0,0-3.186-19.175c-1.335-2.244-3.07-4.544-2.818-7.141.3-3.029,3.316-5.174,6.321-5.661s6.059.231,9.077.623a4.862,4.862,0,0,0,3.086-.306,6.164,6.164,0,0,0,1.209-1.072,13.67,13.67,0,0,1,15.921-2.225c1.116.623,2.8-.767,3.965-1.29l13.11-5.935c15.061-6.813,30.2-13.658,46.129-17.972a9.687,9.687,0,0,0,3.553-1.478c.792-.623,1.359-1.468,2.088-2.163,1.59-1.5,3.8-2.1,5.71-3.167S261.267,591.249,260.83,589.112Z" transform="translate(110.435 -355.779)" fill="#2f2e41"/>
        <ellipse id="Ellipse_63" data-name="Ellipse 63" cx="9.344" cy="9.344" rx="9.344" ry="9.344" transform="translate(327.984 205.636)" fill="#fbbebe"/>
        <ellipse id="Ellipse_64" data-name="Ellipse 64" cx="9.344" cy="9.344" rx="9.344" ry="9.344" transform="translate(307.294 205.636)" fill="#fbbebe"/>
        <path id="Path_797" data-name="Path 797" d="M196.149,555.584H324.522a5.66,5.66,0,0,0,5.653-5.653v-77.88a5.66,5.66,0,0,0-5.653-5.653H196.149a5.66,5.66,0,0,0-5.653,5.653v77.88A5.66,5.66,0,0,0,196.149,555.584Z" transform="translate(62.81 -319.549)" fill="#3f3d56"/>
        <ellipse id="Ellipse_263" data-name="Ellipse 263" cx="3.74" cy="3.74" rx="3.74" ry="3.74" transform="translate(319.717 187.702)" fill="#fff"/>
      </g>
      <path id="Path_798" data-name="Path 798" d="M729.743,349.5H896.529a3.341,3.341,0,0,0,3.337-3.337V314.73h-1.335v31.436a2,2,0,0,1-2,2H729.743a2,2,0,0,1-2-2V314.51h-1.335v31.656a3.341,3.341,0,0,0,3.337,3.338Z" transform="translate(-659.375 -245.082)" fill="#3f3d56"/>
      <rect id="Rectangle_137" data-name="Rectangle 137" width="391.928" height="1.335" transform="translate(9.907 68.98)" fill="#3f3d56"/>
      <ellipse id="Ellipse_264" data-name="Ellipse 264" cx="11.481" cy="11.481" rx="11.481" ry="11.481" transform="translate(390.327 58.062)" fill="#6c63ff"/>
      <ellipse id="Ellipse_266" data-name="Ellipse 266" cx="11.481" cy="11.481" rx="11.481" ry="11.481" transform="translate(273.656 58.062)" fill="#6c63ff"/>
      <ellipse id="Ellipse_268" data-name="Ellipse 268" cx="11.481" cy="11.481" rx="11.481" ry="11.481" transform="translate(194.478 91.808)" fill="#3f3d56"/>
      <ellipse id="Ellipse_269" data-name="Ellipse 269" cx="11.481" cy="11.481" rx="11.481" ry="11.481" transform="translate(134.284 91.808)" fill="#ccc"/>
      <ellipse id="Ellipse_270" data-name="Ellipse 270" cx="11.481" cy="11.481" rx="11.481" ry="11.481" transform="translate(163.453 58.062)" fill="#6c63ff"/>
      <ellipse id="Ellipse_271" data-name="Ellipse 271" cx="11.481" cy="11.481" rx="11.481" ry="11.481" transform="translate(0 58.062)" fill="#6c63ff"/>
      <ellipse id="Ellipse_272" data-name="Ellipse 272" cx="11.481" cy="11.481" rx="11.481" ry="11.481" transform="translate(56.218 58.062)" fill="#6c63ff"/>
      <rect id="Rectangle_207" data-name="Rectangle 207" width="21.295" height="14.677" transform="translate(157.247 0)" fill="#3f3d56"/>
      <rect id="Rectangle_208" data-name="Rectangle 208" width="21.295" height="14.677" transform="translate(352.755 0)" fill="#6c63ff"/>
      <rect id="Rectangle_209" data-name="Rectangle 209" width="21.295" height="14.677" transform="translate(280.624 0)" fill="#ccc"/>
      <path id="Path_799" data-name="Path 799" d="M572.875,297.428a.667.667,0,0,0,.667-.667V263.814a3.341,3.341,0,0,0-3.337-3.337H537.718a.667.667,0,1,0,0,1.335h32.487a2,2,0,0,1,2,2V296.76A.667.667,0,0,0,572.875,297.428Z" transform="translate(-206.67 -227.112)" fill="#3f3d56"/>
      <ellipse id="Ellipse_265" data-name="Ellipse 265" cx="11.481" cy="11.481" rx="11.481" ry="11.481" transform="translate(318.041 22.302)" fill="#e6e6e6"/>
      <path id="Path_800" data-name="Path 800" d="M955.54,296.76h1.335V263.814a3.341,3.341,0,0,0-3.337-3.337H921.051v1.335h32.487a2,2,0,0,1,2,2Z" transform="translate(-846.296 -227.112)" fill="#3f3d56"/>
      <ellipse id="Ellipse_265-2" data-name="Ellipse 265" cx="11.481" cy="11.481" rx="11.481" ry="11.481" transform="translate(61.747 22.302)" fill="#e6e6e6"/>
    </g>
  </g>
</svg>
